# This file uses centimeters as units for non-parametric coordinates.

mtllib Massive Beard.mtl
g default
v -1.904924 -0.448758 4.616416
v 1.904924 -0.448758 4.616416
v -1.904924 1.584559 3.855061
v 1.904924 1.584559 3.855061
v -1.904924 1.376200 2.411627
v 1.904924 1.376200 2.411627
v -1.904924 -0.695928 2.710738
v 1.904924 -0.695928 2.710738
v 0.976719 1.584559 3.855061
v 0.976719 1.376200 2.411627
v 0.976719 -0.695928 2.710738
v 0.976719 -0.448758 4.616416
v -0.976720 1.584559 3.855061
v -0.976720 1.376200 2.411627
v -0.976720 -0.695928 2.710738
v -0.976720 -0.448758 4.616416
v -1.904924 2.361507 3.742908
v -0.976720 2.361507 3.742908
v -0.976720 2.153147 2.299474
v -1.904924 2.153147 2.299474
v 0.976719 2.361507 3.742908
v 1.904924 2.361507 3.742908
v 1.904924 2.153147 2.299474
v 0.976719 2.153147 2.299474
v -1.904924 3.046761 3.643992
v -0.976720 3.046761 3.643992
v -0.976720 2.838402 2.200558
v -1.904924 2.838402 2.200558
v 0.976719 3.046761 3.643992
v 1.904924 3.046761 3.643992
v 1.904924 2.838402 2.200558
v 0.976719 2.838402 2.200558
vt 0.375000 0.000000
vt 0.625000 0.000000
vt 0.375000 0.250000
vt 0.625000 0.250000
vt 0.375000 0.500000
vt 0.625000 0.500000
vt 0.375000 0.750000
vt 0.625000 0.750000
vt 0.375000 1.000000
vt 0.625000 1.000000
vt 0.875000 0.000000
vt 0.875000 0.250000
vt 0.125000 0.000000
vt 0.125000 0.250000
vt 0.541667 0.250000
vt 0.541667 0.500000
vt 0.541667 0.750000
vt 0.541667 0.000000
vt 0.541667 1.000000
vt 0.458333 0.250000
vt 0.458333 0.500000
vt 0.458333 0.750000
vt 0.458333 0.000000
vt 0.458333 1.000000
vt 0.375000 0.250000
vt 0.458333 0.250000
vt 0.458333 0.500000
vt 0.375000 0.500000
vt 0.541667 0.250000
vt 0.625000 0.250000
vt 0.625000 0.500000
vt 0.541667 0.500000
vt 0.375000 0.250000
vt 0.458333 0.250000
vt 0.458333 0.500000
vt 0.375000 0.500000
vt 0.541667 0.250000
vt 0.625000 0.250000
vt 0.625000 0.500000
vt 0.541667 0.500000
vn 0.000000 0.350663 0.936502
vn 0.000000 0.350664 0.936502
vn 0.000000 0.329698 0.944087
vn 0.000000 0.296819 0.954934
vn 0.000000 0.989742 -0.142869
vn 0.000000 0.989742 -0.142869
vn 0.000000 0.989742 -0.142869
vn 0.000000 0.989742 -0.142869
vn 0.000000 -0.142869 -0.989742
vn 0.000000 -0.142869 -0.989742
vn 0.000000 -0.142869 -0.989742
vn 0.000000 -0.142869 -0.989742
vn 0.000000 -0.991693 0.128625
vn 0.000000 -0.991693 0.128625
vn 0.000000 -0.991693 0.128625
vn 0.000000 -0.991693 0.128625
vn 1.000000 0.000000 0.000000
vn 1.000000 0.000000 0.000000
vn 1.000000 0.000000 0.000000
vn 1.000000 0.000000 0.000000
vn -1.000000 0.000000 0.000000
vn -1.000000 0.000000 0.000000
vn -1.000000 0.000000 0.000000
vn -1.000000 0.000000 0.000000
vn 0.000000 0.989742 -0.142869
vn 0.000000 0.989742 -0.142869
vn 0.000000 0.989742 -0.142869
vn 0.000000 0.989742 -0.142869
vn 0.000000 -0.142869 -0.989742
vn 0.000000 -0.142869 -0.989742
vn 0.000000 -0.142869 -0.989742
vn 0.000000 -0.142869 -0.989742
vn 0.000000 -0.991693 0.128625
vn 0.000000 -0.991693 0.128625
vn 0.000000 -0.991693 0.128625
vn 0.000000 -0.991693 0.128625
vn 0.000000 0.329698 0.944087
vn 0.000000 0.350664 0.936502
vn 0.000000 0.350664 0.936502
vn 0.000000 0.296819 0.954934
vn 0.000000 0.989742 -0.142869
vn 0.000000 0.989742 -0.142869
vn 0.000000 0.989742 -0.142869
vn 0.000000 0.989742 -0.142869
vn 0.000000 0.142869 0.989742
vn 0.000000 0.142869 0.989742
vn 1.000000 -0.000000 0.000000
vn 1.000000 -0.000000 0.000000
vn 1.000000 -0.000000 0.000000
vn 1.000000 -0.000000 0.000000
vn 0.000000 -0.142869 -0.989742
vn 0.000000 -0.142869 -0.989742
vn -1.000000 0.000000 0.000000
vn -1.000000 0.000000 0.000000
vn 0.000000 0.142869 0.989742
vn 0.000000 0.142869 0.989742
vn 1.000000 -0.000000 0.000000
vn 1.000000 -0.000000 0.000000
vn 0.000000 -0.142869 -0.989742
vn 0.000000 -0.142869 -0.989742
vn -1.000000 0.000000 0.000000
vn -1.000000 0.000000 0.000000
vn -1.000000 0.000000 0.000000
vn -1.000000 0.000000 0.000000
vn 0.000000 0.142869 0.989742
vn 0.000000 0.142869 0.989742
vn 0.000000 -0.142869 -0.989742
vn 0.000000 -0.142869 -0.989742
vn -1.000000 0.000000 0.000000
vn -1.000000 0.000000 0.000000
vn 0.000000 0.142869 0.989742
vn 0.000000 0.142869 0.989742
vn 1.000000 -0.000000 0.000000
vn 1.000000 -0.000000 0.000000
vn 0.000000 -0.142869 -0.989742
vn 0.000000 -0.142869 -0.989742
vn 0.000000 -0.142869 -0.989742
vn 0.000000 -0.142869 -0.989742
vn 0.000000 -0.142869 -0.989742
vn 0.000000 -0.142869 -0.989742
vn 0.000000 0.989742 -0.142869
vn 0.000000 0.989742 -0.142869
vn 0.000000 0.989742 -0.142869
vn 0.000000 0.989742 -0.142869
vn 0.000000 0.142869 0.989742
vn 0.000000 0.142869 0.989742
vn 0.000000 0.142869 0.989742
vn 0.000000 0.142869 0.989742
vn 0.000000 -0.989742 0.142869
vn 0.000000 -0.989742 0.142869
vn 0.000000 -0.989742 0.142869
vn 0.000000 -0.989742 0.142869
s 1
g Massive_Beard
usemtl initialShadingGroup
f 1/1/1 16/23/2 13/20/3 3/3/4
s off
f 25/33/5 26/34/6 27/35/7 28/36/8
s 2
f 5/5/9 14/21/10 15/22/11 7/7/12
s 3
f 7/7/13 15/22/14 16/24/15 1/9/16
s 4
f 2/2/17 8/11/18 6/12/19 4/4/20
s 5
f 7/13/21 1/1/22 3/3/23 5/14/24
s off
f 29/37/25 30/38/26 31/39/27 32/40/28
s 2
f 11/17/29 10/16/30 6/6/31 8/8/32
s 3
f 12/19/33 11/17/34 8/8/35 2/10/36
s 1
f 9/15/37 12/18/38 2/2/39 4/4/40
s off
f 13/20/41 9/15/42 10/16/43 14/21/44
s 2
f 15/22/11 14/21/10 10/16/30 11/17/29
s 3
f 16/24/15 15/22/14 11/17/34 12/19/33
s 1
f 13/20/3 16/23/2 12/18/38 9/15/37
f 3/3/4 13/20/3 18/26/45 17/25/46
s off
f 13/20/47 14/21/48 19/27/49 18/26/50
s 2
f 14/21/10 5/5/9 20/28/51 19/27/52
s 5
f 5/5/24 3/3/23 17/25/53 20/28/54
s 1
f 9/15/37 4/4/40 22/30/55 21/29/56
s 4
f 4/4/20 6/6/19 23/31/57 22/30/58
s 2
f 6/6/31 10/16/30 24/32/59 23/31/60
s off
f 10/16/61 9/15/62 21/29/63 24/32/64
s 1
f 17/25/46 18/26/45 26/34/65 25/33/66
s 2
f 19/27/52 20/28/51 28/36/67 27/35/68
s 5
f 20/28/54 17/25/53 25/33/69 28/36/70
s 1
f 21/29/56 22/30/55 30/38/71 29/37/72
s 4
f 22/30/58 23/31/57 31/39/73 30/38/74
s 2
f 23/31/60 24/32/59 32/40/75 31/39/76
s off
f 19/27/77 27/35/78 32/40/79 24/32/80
f 27/35/81 26/34/82 29/37/83 32/40/84
f 26/34/85 18/26/86 21/29/87 29/37/88
f 18/26/89 19/27/90 24/32/91 21/29/92
