# This file uses centimeters as units for non-parametric coordinates.

mtllib Cool Hair.mtl
g default
v -3.727196 2.603899 2.733870
v 3.727196 2.603899 2.733870
v -3.727196 8.415678 3.384119
v 3.727196 8.415678 3.384119
v -3.727196 8.097956 -3.726192
v 3.727196 8.097956 -3.726192
v -3.727196 1.817191 -3.726192
v 3.727196 1.817191 -3.726192
v 3.727196 8.415678 2.073751
v -3.727196 8.415678 2.073751
v -3.727196 1.817191 1.116943
v 3.727196 1.817191 1.116943
v -3.727196 9.756929 3.173226
v 3.727196 9.756929 3.173226
v 3.727196 9.756929 1.787008
v -3.727196 9.756929 1.787008
v -3.727196 10.714934 2.443630
v 3.727196 10.714934 2.443630
v 3.727196 10.176815 1.492590
v -3.727196 10.176815 1.492590
vt 0.375000 0.000000
vt 0.625000 0.000000
vt 0.375000 0.250000
vt 0.625000 0.250000
vt 0.375000 0.500000
vt 0.625000 0.500000
vt 0.375000 0.750000
vt 0.625000 0.750000
vt 0.375000 1.000000
vt 0.625000 1.000000
vt 0.875000 0.000000
vt 0.875000 0.250000
vt 0.125000 0.000000
vt 0.125000 0.250000
vt 0.625000 0.309226
vt 0.684226 0.250000
vt 0.315774 0.250000
vt 0.375000 0.309226
vt 0.315774 0.000000
vt 0.375000 0.940774
vt 0.625000 0.940774
vt 0.684226 0.000000
vt 0.375000 0.250000
vt 0.625000 0.250000
vt 0.625000 0.309226
vt 0.375000 0.309226
vt 0.375000 0.250000
vt 0.625000 0.250000
vt 0.625000 0.309226
vt 0.375000 0.309226
vn 0.000000 -0.111191 0.993799
vn 0.000000 -0.111191 0.993799
vn 0.000000 -0.111191 0.993799
vn 0.000000 -0.111191 0.993799
vn 0.000000 0.870337 -0.492456
vn 0.000000 0.870337 -0.492456
vn 0.000000 0.870337 -0.492456
vn 0.000000 0.870337 -0.492456
vn 0.000000 0.000000 -1.000000
vn 0.000000 0.000000 -1.000000
vn 0.000000 0.000000 -1.000000
vn 0.000000 0.000000 -1.000000
vn 0.000000 -0.899214 0.437509
vn 0.000000 -0.899214 0.437509
vn 0.000000 -0.899214 0.437509
vn 0.000000 -0.899214 0.437509
vn 1.000000 0.000000 0.000000
vn 1.000000 0.000000 0.000000
vn 1.000000 0.000000 0.000000
vn 1.000000 0.000000 0.000000
vn -1.000000 0.000000 0.000000
vn -1.000000 0.000000 0.000000
vn -1.000000 0.000000 0.000000
vn -1.000000 0.000000 0.000000
vn 0.000000 0.998503 -0.054698
vn 0.000000 0.998503 -0.054698
vn 0.000000 0.998503 -0.054698
vn 0.000000 0.998503 -0.054698
vn -1.000000 0.000000 0.000000
vn -1.000000 0.000000 0.000000
vn -1.000000 0.000000 0.000000
vn -1.000000 0.000000 0.000000
vn 0.000000 -1.000000 0.000000
vn 0.000000 -1.000000 0.000000
vn 0.000000 -1.000000 0.000000
vn 0.000000 -1.000000 0.000000
vn 1.000000 0.000000 0.000000
vn 1.000000 0.000000 0.000000
vn 1.000000 0.000000 0.000000
vn 1.000000 0.000000 0.000000
vn 0.000000 0.155328 0.987863
vn 0.000000 0.155328 0.987863
vn 0.000000 0.378593 0.925563
vn 0.000000 0.378593 0.925563
vn 1.000000 -0.000000 0.000000
vn 1.000000 -0.000000 0.000000
vn 1.000000 -0.000000 0.000000
vn 1.000000 -0.000000 0.000000
vn 0.000000 -0.209063 -0.977902
vn 0.000000 -0.209063 -0.977902
vn 0.000000 -0.209063 -0.977902
vn 0.000000 -0.209063 -0.977902
vn -1.000000 -0.000000 0.000000
vn -1.000000 -0.000000 0.000000
vn -1.000000 -0.000000 0.000000
vn -1.000000 -0.000000 0.000000
vn 0.000000 0.605879 0.795557
vn 0.000000 0.605879 0.795557
vn 1.000000 0.000000 0.000000
vn 1.000000 0.000000 0.000000
vn 0.000000 -0.574114 -0.818775
vn 0.000000 -0.574114 -0.818775
vn 0.000000 -0.574114 -0.818775
vn 0.000000 -0.574114 -0.818775
vn -1.000000 0.000000 0.000000
vn -1.000000 0.000000 0.000000
s off
g Cool_Hair
usemtl initialShadingGroup
f 1/1/1 2/2/2 4/4/3 3/3/4
f 17/27/5 18/28/6 19/29/7 20/30/8
f 5/5/9 6/6/10 8/8/11 7/7/12
f 11/20/13 12/21/14 2/10/15 1/9/16
f 2/2/17 12/22/18 9/16/19 4/4/20
f 11/19/21 1/1/22 3/3/23 10/17/24
f 10/18/25 9/15/26 6/6/27 5/5/28
f 7/13/29 11/19/30 10/17/31 5/14/32
f 7/7/33 8/8/34 12/21/35 11/20/36
f 9/16/37 12/22/38 8/11/39 6/12/40
s 1
f 3/3/41 4/4/42 14/24/43 13/23/44
s 2
f 4/4/45 9/15/46 15/25/47 14/24/48
s off
f 9/15/49 10/18/50 16/26/51 15/25/52
s 3
f 10/18/53 3/3/54 13/23/55 16/26/56
s 1
f 13/23/44 14/24/43 18/28/57 17/27/58
s 2
f 14/24/48 15/25/47 19/29/59 18/28/60
s off
f 15/25/61 16/26/62 20/30/63 19/29/64
s 3
f 16/26/56 13/23/55 17/27/65 20/30/66
