# This file uses centimeters as units for non-parametric coordinates.

mtllib Long Hair.mtl
g default
v -3.997169 2.082272 3.420066
v 3.997169 2.082272 3.420066
v -3.997169 8.673843 3.420082
v 3.997169 8.673843 3.420082
v -3.891365 8.673843 -3.890835
v 3.891365 8.673843 -3.890835
v -3.891365 2.082272 -3.890848
v 3.891365 2.082272 -3.890848
v 3.997169 8.673843 -2.998055
v -3.997169 8.673843 -2.998055
v -3.997169 2.082272 -2.998063
v 3.997169 2.082272 -2.998062
v 3.153461 8.673843 -3.890835
v 3.153461 2.082272 -3.890848
v 3.153461 2.082272 -2.998062
v 3.153461 2.082272 3.420066
v 3.153461 8.673843 3.420082
v 3.153461 8.673843 -2.998055
v -3.153461 8.673843 -3.890835
v -3.153461 2.082272 -3.890848
v -3.153461 2.082272 -2.998062
v -3.153461 2.082272 3.420066
v -3.153461 8.673843 3.420082
v -3.153461 8.673843 -2.998055
v -4.054904 -0.598749 -2.998063
v -3.285990 -0.598749 -2.998062
v -3.285990 -0.598749 3.420066
v -4.054904 -0.598749 3.420066
v -4.054904 -0.598749 -3.890848
v -3.285990 -0.598749 -3.890848
v 3.285989 -0.598749 -3.890848
v 3.285989 -0.598749 -2.998062
v 4.054904 -0.598749 -3.890848
v 4.054904 -0.598749 -2.998062
v 3.285989 -0.598749 3.420066
v 4.054904 -0.598749 3.420066
vt 0.375000 0.000000
vt 0.625000 0.000000
vt 0.375000 0.250000
vt 0.625000 0.250000
vt 0.375000 0.500000
vt 0.625000 0.500000
vt 0.375000 0.750000
vt 0.625000 0.750000
vt 0.375000 1.000000
vt 0.625000 1.000000
vt 0.875000 0.000000
vt 0.875000 0.250000
vt 0.125000 0.000000
vt 0.125000 0.250000
vt 0.625000 0.375000
vt 0.750000 0.250000
vt 0.250000 0.250000
vt 0.375000 0.375000
vt 0.250000 0.000000
vt 0.375000 0.875000
vt 0.625000 0.875000
vt 0.750000 0.000000
vt 0.625000 0.375000
vt 0.750000 0.250000
vt 0.250000 0.250000
vt 0.375000 0.375000
vt 0.250000 0.000000
vt 0.375000 0.875000
vt 0.625000 0.875000
vt 0.750000 0.000000
vt 0.625000 0.375000
vt 0.750000 0.250000
vt 0.250000 0.250000
vt 0.375000 0.375000
vt 0.250000 0.000000
vt 0.375000 0.875000
vt 0.625000 0.875000
vt 0.750000 0.000000
vt 0.541667 0.500000
vt 0.541667 0.750000
vt 0.541667 0.875000
vt 0.541667 0.000000
vt 0.541667 1.000000
vt 0.541667 0.250000
vt 0.541667 0.375000
vt 0.458333 0.500000
vt 0.458333 0.750000
vt 0.458333 0.875000
vt 0.458333 0.000000
vt 0.458333 1.000000
vt 0.458333 0.250000
vt 0.458333 0.375000
vt 0.458333 0.875000
vt 0.458333 1.000000
vt 0.375000 1.000000
vt 0.375000 0.875000
vt 0.375000 0.750000
vt 0.458333 0.750000
vt 0.541667 0.750000
vt 0.625000 0.750000
vt 0.625000 0.875000
vt 0.541667 1.000000
vt 0.541667 0.875000
vt 0.625000 1.000000
vn 0.000000 -0.000002 1.000000
vn 0.000000 -0.000002 1.000000
vn 0.000000 -0.000002 1.000000
vn 0.000000 -0.000002 1.000000
vn 0.000000 1.000000 0.000000
vn 0.000000 1.000000 0.000000
vn 0.000000 1.000000 -0.000000
vn 0.000000 1.000000 -0.000000
vn 0.000000 0.000002 -1.000000
vn 0.000000 0.000002 -1.000000
vn 0.000000 0.000001 -1.000000
vn 0.000000 0.000001 -1.000000
vn 0.000000 -1.000000 0.000000
vn 0.000000 -1.000000 0.000000
vn 0.000000 -1.000000 0.000000
vn 0.000000 -1.000000 0.000000
vn 0.999981 0.006226 0.000000
vn 0.999899 0.006924 -0.012381
vn 0.999895 0.000000 -0.014471
vn 1.000000 0.000000 0.000000
vn -0.999899 0.006924 -0.012381
vn -0.999981 0.006226 0.000000
vn -1.000000 0.000000 0.000000
vn -0.999895 0.000000 -0.014471
vn 0.000000 1.000000 -0.000000
vn 0.000000 1.000000 -0.000000
vn -0.994825 0.011832 -0.100909
vn -0.993051 0.000000 -0.117687
vn 0.000000 -1.000000 0.000000
vn 0.000000 -1.000000 0.000000
vn 0.994825 0.011832 -0.100909
vn 0.993051 0.000000 -0.117687
vn 0.000000 0.000002 -1.000000
vn 0.000000 0.000002 -1.000000
vn 0.000000 0.000001 -1.000000
vn 0.000000 0.000001 -1.000000
vn 0.000000 -1.000000 0.000000
vn 0.000000 -1.000000 0.000000
vn 0.000000 -1.000000 0.000000
vn 0.000000 -1.000000 0.000000
vn 0.000000 -1.000000 0.000000
vn 0.000000 -1.000000 0.000000
vn 0.000000 -0.000002 1.000000
vn 0.000000 -0.000002 1.000000
vn 0.000000 -0.000002 1.000000
vn 0.000000 -0.000002 1.000000
vn 0.000000 1.000000 0.000000
vn 0.000000 1.000000 0.000000
vn 0.000000 1.000000 0.000000
vn 0.000000 1.000000 0.000000
vn 0.000000 1.000000 0.000000
vn 0.000000 1.000000 0.000000
vn 0.000000 -1.000000 0.000000
vn 0.000000 -1.000000 0.000000
vn 0.000000 -1.000000 0.000000
vn 0.000000 -1.000000 0.000000
vn 0.998781 -0.049372 0.000000
vn 0.998781 -0.049372 0.000000
vn 0.998781 -0.049372 0.000000
vn 0.998781 -0.049372 0.000000
vn 0.000000 0.000000 1.000000
vn 0.000000 0.000000 1.000000
vn -0.999687 0.023937 -0.007234
vn -0.999768 0.021530 0.000000
vn 0.000000 0.000000 -1.000000
vn 0.000000 0.000000 -1.000000
vn -0.997403 0.041160 -0.059101
vn 0.000000 0.000000 -1.000000
vn 0.000000 0.000000 -1.000000
vn 0.999687 0.023937 -0.007234
vn 0.997403 0.041160 -0.059101
vn -0.998780 -0.049372 0.000000
vn -0.998780 -0.049372 0.000000
vn -0.998780 -0.049372 0.000000
vn -0.998780 -0.049372 0.000000
vn 0.999768 0.021530 0.000000
vn 0.000000 0.000000 1.000000
vn 0.000000 0.000000 1.000000
vn -0.000000 0.000000 1.000000
vn -0.000000 0.000000 1.000000
vn -0.000000 0.000000 1.000000
vn -0.000000 0.000000 1.000000
s 1
g Long_Hair
usemtl initialShadingGroup
f 1/1/1 22/49/2 23/51/3 3/3/4
s 2
f 3/3/5 23/51/6 24/52/7 10/34/8
s 3
f 5/5/9 19/46/10 20/47/11 7/7/12
s 4
f 25/56/13 26/53/14 27/54/15 28/55/16
s 5
f 2/2/17 12/38/18 9/32/19 4/4/20
s 6
f 11/35/21 1/1/22 3/3/23 10/33/24
s 2
f 10/34/8 24/52/7 19/46/25 5/5/26
s 6
f 7/13/27 11/35/21 10/33/24 5/14/28
s 4
f 29/57/29 30/58/30 26/53/14 25/56/13
s 5
f 9/32/19 12/38/18 8/11/31 6/12/32
s 3
f 13/39/33 6/6/34 8/8/35 14/40/36
s 4
f 32/63/37 31/59/38 33/60/39 34/61/40
f 35/62/41 32/63/37 34/61/40 36/64/42
s 1
f 17/44/43 16/42/44 2/2/45 4/4/46
s 2
f 18/45/47 17/44/48 4/4/49 9/31/50
f 13/39/51 18/45/47 9/31/50 6/6/52
s 3
f 19/46/10 13/39/33 14/40/36 20/47/11
s 4
f 26/53/14 30/58/30 31/59/38 32/63/37
s off
f 22/50/53 21/48/54 15/41/55 16/43/56
s 1
f 23/51/3 22/49/2 16/42/44 17/44/43
s 2
f 24/52/7 23/51/6 17/44/48 18/45/47
f 19/46/25 24/52/7 18/45/47 13/39/51
s off
f 21/48/57 22/50/58 27/54/59 26/53/60
s 1
f 22/50/2 1/9/1 28/55/61 27/54/62
s 6
f 1/9/22 11/36/21 25/56/63 28/55/64
s 3
f 7/7/12 20/47/11 30/58/65 29/57/66
s 6
f 11/36/21 7/7/27 29/57/67 25/56/63
s 3
f 14/40/36 8/8/35 33/60/68 31/59/69
s 5
f 8/8/31 12/37/18 34/61/70 33/60/71
s off
f 16/43/72 15/41/73 32/63/74 35/62/75
s 5
f 12/37/18 2/10/17 36/64/76 34/61/70
s 1
f 2/10/45 16/43/44 35/62/77 36/64/78
s 3
f 20/47/11 14/40/36 31/59/69 30/58/65
s off
f 15/41/79 21/48/80 26/53/81 32/63/82
