# This file uses centimeters as units for non-parametric coordinates.

mtllib Styled Hair.mtl
g default
v -3.896311 1.377398 3.136097
v 3.896311 1.377398 3.136097
v -3.896311 8.464548 3.136097
v 3.896311 8.464548 3.136097
v -3.896311 8.464548 -4.116832
v 3.896311 8.464548 -4.116832
v -3.896311 1.377398 -4.116832
v 3.896311 1.377398 -4.116832
v 3.896311 8.464548 -3.102124
v -3.896311 8.464548 -3.102124
v -3.896311 1.377398 -3.102124
v 3.896311 1.377398 -3.102124
v 3.087544 8.464548 -4.116838
v 3.087544 1.377398 -4.116838
v 3.087544 1.377398 -3.102124
v 3.087544 1.377398 3.136104
v 3.087544 8.464548 3.136104
v 3.087544 8.464548 -3.102124
v -3.087545 8.464548 -4.116838
v -3.087545 1.377398 -4.116838
v -3.087545 1.377398 -3.102124
v -3.087545 1.377398 3.136104
v -3.087545 8.464548 3.136104
v -3.087545 8.464548 -3.102124
v 3.896311 2.804935 -4.116832
v 3.087544 2.804935 -4.116838
v -3.087545 2.804935 -4.116838
v -3.896311 2.804935 -4.116832
v -3.896311 2.804935 -3.102124
v -3.896311 2.804935 3.136097
v -3.087545 2.804935 3.136104
v 3.087544 2.804935 3.136104
v 3.896311 2.804935 3.136097
v 3.896311 2.804935 -3.102124
v -4.412353 1.377398 -4.116832
v -4.412353 1.377398 -3.102124
v -4.412353 2.804935 -3.102124
v -4.412353 2.804935 -4.116832
v -4.412353 1.377398 3.136097
v -4.412353 2.804935 3.136097
v 4.412353 1.377398 -3.102124
v 4.412353 1.377398 3.136097
v 4.412353 2.804935 -3.102124
v 4.412353 2.804935 3.136097
v 4.412353 2.804935 -4.116832
v 4.412353 1.377398 -4.116832
vt 0.375000 0.000000
vt 0.625000 0.000000
vt 0.375000 0.250000
vt 0.625000 0.250000
vt 0.375000 0.500000
vt 0.625000 0.500000
vt 0.375000 0.750000
vt 0.625000 0.750000
vt 0.375000 1.000000
vt 0.625000 1.000000
vt 0.875000 0.000000
vt 0.875000 0.250000
vt 0.125000 0.000000
vt 0.125000 0.250000
vt 0.625000 0.465024
vt 0.840024 0.250000
vt 0.159976 0.250000
vt 0.375000 0.465024
vt 0.159976 0.000000
vt 0.375000 0.784976
vt 0.625000 0.784976
vt 0.840024 0.000000
vt 0.541667 0.500000
vt 0.541667 0.750000
vt 0.541667 0.784976
vt 0.541667 0.000000
vt 0.541667 1.000000
vt 0.541667 0.250000
vt 0.541667 0.465024
vt 0.458333 0.500000
vt 0.458333 0.750000
vt 0.458333 0.784976
vt 0.458333 0.000000
vt 0.458333 1.000000
vt 0.458333 0.250000
vt 0.458333 0.465024
vt 0.625000 0.712955
vt 0.875000 0.037045
vt 0.541667 0.712955
vt 0.458333 0.712955
vt 0.125000 0.037045
vt 0.375000 0.712955
vt 0.159976 0.037045
vt 0.375000 0.037045
vt 0.458333 0.037045
vt 0.541667 0.037045
vt 0.625000 0.037045
vt 0.840024 0.037045
vt 0.125000 0.000000
vt 0.159976 0.000000
vt 0.159976 0.037045
vt 0.125000 0.037045
vt 0.375000 0.000000
vt 0.375000 0.037045
vt 0.625000 0.000000
vt 0.840024 0.000000
vt 0.840024 0.037045
vt 0.625000 0.037045
vt 0.875000 0.037045
vt 0.875000 0.000000
vn -0.000007 0.000000 1.000000
vn -0.000001 0.000000 1.000000
vn -0.000001 0.000000 1.000000
vn -0.000008 0.000000 1.000000
vn 0.000000 1.000000 0.000000
vn 0.000000 1.000000 0.000000
vn 0.000000 1.000000 0.000000
vn 0.000000 1.000000 0.000000
vn -0.000007 0.000000 -1.000000
vn -0.000001 0.000000 -1.000000
vn -0.000001 0.000000 -1.000000
vn -0.000006 0.000000 -1.000000
vn 0.000000 -1.000000 0.000000
vn 0.000000 -1.000000 0.000000
vn 0.000000 -1.000000 0.000000
vn 0.000000 -1.000000 0.000000
vn 1.000000 0.000000 0.000000
vn 1.000000 0.000000 0.000000
vn 1.000000 0.000000 0.000000
vn 1.000000 0.000000 0.000000
vn -1.000000 0.000000 0.000000
vn -1.000000 0.000000 0.000000
vn -1.000000 0.000000 0.000000
vn -1.000000 0.000000 0.000000
vn 0.000000 1.000000 0.000000
vn 0.000000 1.000000 0.000000
vn 0.000000 1.000000 0.000000
vn 0.000000 1.000000 0.000000
vn -1.000000 0.000000 0.000000
vn -1.000000 0.000000 0.000000
vn -1.000000 0.000000 0.000000
vn -1.000000 0.000000 0.000000
vn 0.000000 -1.000000 0.000000
vn 0.000000 -1.000000 0.000000
vn 0.000000 -1.000000 0.000000
vn 0.000000 -1.000000 0.000000
vn 1.000000 0.000000 0.000000
vn 1.000000 0.000000 0.000000
vn 1.000000 0.000000 0.000000
vn 1.000000 0.000000 0.000000
vn 0.000001 0.000000 -1.000000
vn 0.000007 0.000000 -1.000000
vn 0.000006 0.000000 -1.000000
vn 0.000001 0.000000 -1.000000
vn 0.000000 -1.000000 0.000000
vn 0.000000 -1.000000 0.000000
vn 0.000000 -1.000000 0.000000
vn 0.000000 -1.000000 0.000000
vn 0.000000 -1.000000 0.000000
vn 0.000000 -1.000000 0.000000
vn 0.000000 -1.000000 0.000000
vn 0.000000 -1.000000 0.000000
vn 0.000001 0.000000 1.000000
vn 0.000001 0.000000 1.000000
vn 0.000007 0.000000 1.000000
vn 0.000008 0.000000 1.000000
vn 0.000000 1.000000 0.000000
vn 0.000000 1.000000 0.000000
vn 0.000000 1.000000 0.000000
vn 0.000000 1.000000 0.000000
vn 0.000000 1.000000 0.000000
vn 0.000000 1.000000 0.000000
vn 0.000000 1.000000 0.000000
vn 0.000000 1.000000 0.000000
vn -0.000001 0.000000 -1.000000
vn 0.000001 0.000000 -1.000000
vn 0.000001 0.000000 -1.000000
vn -0.000001 0.000000 -1.000000
vn 0.000000 -1.000000 0.000000
vn 0.000000 -1.000000 0.000000
vn 0.000000 -1.000000 0.000000
vn 0.000000 -1.000000 0.000000
vn 0.000000 -1.000000 0.000000
vn 0.000000 -1.000000 0.000000
vn 0.000000 -1.000000 0.000000
vn 0.000000 -1.000000 0.000000
vn -0.000001 0.000000 1.000000
vn -0.000001 0.000000 1.000000
vn 0.000001 0.000000 1.000000
vn 0.000001 0.000000 1.000000
vn 0.000000 1.000000 0.000000
vn 0.000000 1.000000 0.000000
vn 0.000000 1.000000 0.000000
vn 0.000000 1.000000 0.000000
vn 0.000000 1.000000 0.000000
vn 0.000000 1.000000 0.000000
vn 0.000000 1.000000 0.000000
vn 0.000000 1.000000 0.000000
vn 0.000001 0.000000 -1.000000
vn 0.000006 0.000000 -1.000000
vn 0.000004 0.000000 -1.000000
vn 0.000001 0.000000 -1.000000
vn -0.000001 0.000000 -1.000000
vn 0.000001 0.000000 -1.000000
vn 0.000001 0.000000 -1.000000
vn -0.000001 0.000000 -1.000000
vn -0.000006 0.000000 -1.000000
vn -0.000001 0.000000 -1.000000
vn -0.000001 0.000000 -1.000000
vn -0.000004 0.000000 -1.000000
vn -1.000000 0.000000 0.000000
vn -1.000000 0.000000 0.000000
vn -1.000000 0.000000 0.000000
vn -1.000000 0.000000 0.000000
vn -1.000000 0.000000 0.000000
vn -1.000000 0.000000 0.000000
vn -1.000000 0.000000 0.000000
vn -1.000000 0.000000 0.000000
vn -0.000005 0.000000 1.000000
vn -0.000001 0.000000 1.000000
vn -0.000001 0.000000 1.000000
vn -0.000007 0.000000 1.000000
vn 0.000001 0.000000 1.000000
vn -0.000001 0.000000 1.000000
vn -0.000001 0.000000 1.000000
vn 0.000001 0.000000 1.000000
vn 0.000007 0.000000 1.000000
vn 0.000001 0.000000 1.000000
vn 0.000001 0.000000 1.000000
vn 0.000005 0.000000 1.000000
vn 1.000000 0.000000 0.000000
vn 1.000000 0.000000 0.000000
vn 1.000000 0.000000 0.000000
vn 1.000000 0.000000 0.000000
vn 1.000000 0.000000 0.000000
vn 1.000000 0.000000 0.000000
vn 1.000000 0.000000 0.000000
vn 1.000000 0.000000 0.000000
vn 0.000000 -1.000000 0.000000
vn 0.000000 -1.000000 0.000000
vn 0.000000 -1.000000 0.000000
vn 0.000000 -1.000000 0.000000
vn 0.000000 1.000000 0.000000
vn 0.000000 1.000000 0.000000
vn 0.000000 1.000000 0.000000
vn 0.000000 1.000000 0.000000
vn -0.000006 0.000000 -1.000000
vn -0.000004 0.000000 -1.000000
vn 0.000000 0.000000 -1.000000
vn 0.000000 0.000000 -1.000000
vn 0.000000 -1.000000 0.000000
vn 0.000000 -1.000000 0.000000
vn 0.000000 -1.000000 0.000000
vn 0.000000 -1.000000 0.000000
vn -0.000005 0.000000 1.000000
vn -0.000007 0.000000 1.000000
vn 0.000000 0.000000 1.000000
vn 0.000000 0.000000 1.000000
vn 0.000000 1.000000 0.000000
vn 0.000000 1.000000 0.000000
vn 0.000000 1.000000 0.000000
vn 0.000000 1.000000 0.000000
vn 0.000000 -1.000000 0.000000
vn 0.000000 -1.000000 0.000000
vn 0.000000 -1.000000 0.000000
vn 0.000000 -1.000000 0.000000
vn 0.000000 1.000000 0.000000
vn 0.000000 1.000000 0.000000
vn 0.000000 1.000000 0.000000
vn 0.000000 1.000000 0.000000
vn 0.000007 0.000000 1.000000
vn 0.000005 0.000000 1.000000
vn 0.000000 0.000000 1.000000
vn 0.000000 0.000000 1.000000
vn 0.000000 1.000000 0.000000
vn 0.000000 1.000000 0.000000
vn 0.000000 1.000000 0.000000
vn 0.000000 1.000000 0.000000
vn 0.000000 -1.000000 0.000000
vn 0.000000 -1.000000 0.000000
vn 0.000000 -1.000000 0.000000
vn 0.000000 -1.000000 0.000000
vn 0.000004 0.000000 -1.000000
vn 0.000006 0.000000 -1.000000
vn 0.000000 0.000000 -1.000000
vn 0.000000 0.000000 -1.000000
s off
g Styled
usemtl StyledSG
f 30/44/1 31/45/2 23/35/3 3/3/4
f 3/3/5 23/35/6 24/36/7 10/18/8
f 5/5/9 19/30/10 27/40/11 28/42/12
f 11/20/13 21/32/14 22/34/15 1/9/16
f 33/47/17 34/48/18 9/16/19 4/4/20
f 29/43/21 30/44/22 3/3/23 10/17/24
f 10/18/25 24/36/26 19/30/27 5/5/28
f 28/41/29 29/43/30 10/17/31 5/14/32
f 7/7/33 20/31/34 21/32/35 11/20/36
f 9/16/37 34/48/38 25/38/39 6/12/40
f 13/23/41 6/6/42 25/37/43 26/39/44
f 15/25/45 14/24/46 8/8/47 12/21/48
f 16/27/49 15/25/50 12/21/51 2/10/52
f 17/28/53 32/46/54 33/47/55 4/4/56
f 18/29/57 17/28/58 4/4/59 9/15/60
f 13/23/61 18/29/62 9/15/63 6/6/64
f 19/30/65 13/23/66 26/39/67 27/40/68
f 21/32/69 20/31/70 14/24/71 15/25/72
f 22/34/73 21/32/74 15/25/75 16/27/76
f 23/35/77 31/45/78 32/46/79 17/28/80
f 24/36/81 23/35/82 17/28/83 18/29/84
f 19/30/85 24/36/86 18/29/87 13/23/88
f 26/39/89 25/37/90 8/8/91 14/24/92
f 27/40/93 26/39/94 14/24/95 20/31/96
f 28/42/97 27/40/98 20/31/99 7/7/100
f 35/49/101 36/50/102 37/51/103 38/52/104
f 36/50/105 39/53/106 40/54/107 37/51/108
f 1/1/109 22/33/110 31/45/111 30/44/112
f 32/46/113 31/45/114 22/33/115 16/26/116
f 33/47/117 32/46/118 16/26/119 2/2/120
f 42/55/121 41/56/122 43/57/123 44/58/124
f 45/59/125 43/57/126 41/56/127 46/60/128
f 7/13/129 11/19/130 36/50/131 35/49/132
f 29/43/133 28/41/134 38/52/135 37/51/136
f 28/41/137 7/13/138 35/49/139 38/52/140
f 11/19/141 1/1/142 39/53/143 36/50/144
f 1/1/145 30/44/146 40/54/147 39/53/148
f 30/44/149 29/43/150 37/51/151 40/54/152
f 2/2/153 12/22/154 41/56/155 42/55/156
f 34/48/157 33/47/158 44/58/159 43/57/160
f 33/47/161 2/2/162 42/55/163 44/58/164
f 25/38/165 34/48/166 43/57/167 45/59/168
f 12/22/169 8/11/170 46/60/171 41/56/172
f 8/11/173 25/38/174 45/59/175 46/60/176
