# This file uses centimeters as units for non-parametric coordinates.

mtllib Backpack.mtl
g default
v -1.432984 -1.610404 1.953147
v 1.432984 -1.610404 1.953147
v -1.432984 -1.610404 0.192672
v 1.432984 -1.610404 0.192672
v 1.432984 0.211080 0.192672
v -1.432984 0.211080 0.192672
v -1.432984 0.211080 1.953147
v 1.432984 0.211080 1.953147
v -1.563908 1.610404 0.044456
v 1.563908 1.610404 0.044456
v 1.563908 0.211080 0.044456
v -1.563908 0.211080 0.044456
v 1.563908 0.211080 2.033570
v 1.563908 1.610404 2.033570
v -1.563908 0.211080 2.033570
v -1.563908 1.610404 2.033570
vt 0.375000 0.000000
vt 0.625000 0.000000
vt 0.375000 0.750000
vt 0.625000 0.750000
vt 0.375000 1.000000
vt 0.625000 1.000000
vt 0.875000 0.000000
vt 0.125000 0.000000
vt 0.625000 0.625000
vt 0.875000 0.125000
vt 0.125000 0.125000
vt 0.375000 0.625000
vt 0.375000 0.125000
vt 0.625000 0.125000
vt 0.375000 0.500000
vt 0.625000 0.500000
vt 0.625000 0.625000
vt 0.375000 0.625000
vt 0.625000 0.125000
vt 0.875000 0.125000
vt 0.875000 0.250000
vt 0.625000 0.250000
vt 0.125000 0.125000
vt 0.375000 0.125000
vt 0.375000 0.250000
vt 0.125000 0.250000
vt 0.000000 0.000000
vt 1.000000 0.000000
vt 1.000000 0.965918
vt 0.000000 0.965918
vn 0.000000 0.000000 -1.000000
vn 0.000000 0.000000 -1.000000
vn 0.000000 0.000000 -1.000000
vn 0.000000 0.000000 -1.000000
vn 0.000000 -1.000000 0.000000
vn 0.000000 -1.000000 0.000000
vn 0.000000 -1.000000 0.000000
vn 0.000000 -1.000000 0.000000
vn 1.000000 0.000000 0.000000
vn 1.000000 0.000000 0.000000
vn 1.000000 0.000000 0.000000
vn 1.000000 0.000000 0.000000
vn -1.000000 0.000000 0.000000
vn -1.000000 0.000000 0.000000
vn -1.000000 0.000000 0.000000
vn -1.000000 0.000000 0.000000
vn 0.000000 0.000000 -1.000000
vn 0.000000 0.000000 -1.000000
vn 0.000000 0.000000 -1.000000
vn 0.000000 0.000000 -1.000000
vn -1.000000 0.000000 0.000000
vn -1.000000 0.000000 0.000000
vn -1.000000 0.000000 0.000000
vn -1.000000 0.000000 0.000000
vn 1.000000 0.000000 0.000000
vn 1.000000 0.000000 0.000000
vn 1.000000 0.000000 0.000000
vn 1.000000 0.000000 0.000000
vn 0.000000 -1.000000 0.000000
vn 0.000000 -1.000000 0.000000
vn 0.000000 -1.000000 0.000000
vn 0.000000 -1.000000 0.000000
vn 0.000000 -1.000000 0.000000
vn 0.000000 -1.000000 0.000000
vn 0.000000 -1.000000 0.000000
vn 0.000000 -1.000000 0.000000
vn 0.000000 -1.000000 0.000000
vn 0.000000 -1.000000 0.000000
vn 0.000000 -1.000000 0.000000
vn 0.000000 -1.000000 0.000000
vn 0.000000 1.000000 0.000000
vn 0.000000 1.000000 0.000000
vn 0.000000 1.000000 0.000000
vn 0.000000 1.000000 0.000000
s off
g Bag
usemtl initialShadingGroup
f 9/15/1 10/16/2 11/17/3 12/18/4
f 3/3/5 4/4/6 2/6/7 1/5/8
f 13/19/9 11/20/10 10/21/11 14/22/12
f 12/23/13 15/24/14 16/25/15 9/26/16
f 6/12/17 5/9/18 4/4/19 3/3/20
f 3/8/21 1/1/22 7/13/23 6/11/24
f 2/2/25 4/7/26 5/10/27 8/14/28
f 5/9/29 6/12/30 12/18/31 11/17/32
f 8/14/33 5/10/34 11/20/35 13/19/36
f 6/11/37 7/13/38 15/24/39 12/23/40
f 9/27/41 16/28/42 14/29/43 10/30/44
g default
v -0.238729 -0.128358 0.966430
v 0.238729 -0.128358 0.966430
v -0.238729 0.871642 0.966430
v 0.238729 0.871642 0.966430
v -0.238729 0.871642 -0.033570
v 0.238729 0.871642 -0.033570
v -0.238729 -0.128358 -0.033570
v 0.238729 -0.128358 -0.033570
vt 0.375000 0.000000
vt 0.625000 0.000000
vt 0.375000 0.250000
vt 0.625000 0.250000
vt 0.375000 0.500000
vt 0.625000 0.500000
vt 0.375000 0.750000
vt 0.625000 0.750000
vt 0.375000 1.000000
vt 0.625000 1.000000
vt 0.875000 0.000000
vt 0.875000 0.250000
vt 0.125000 0.000000
vt 0.125000 0.250000
vn 0.000000 1.000000 0.000000
vn 0.000000 1.000000 0.000000
vn 0.000000 1.000000 0.000000
vn 0.000000 1.000000 0.000000
vn 0.000000 0.000000 -1.000000
vn 0.000000 0.000000 -1.000000
vn 0.000000 0.000000 -1.000000
vn 0.000000 0.000000 -1.000000
vn 0.000000 -1.000000 0.000000
vn 0.000000 -1.000000 0.000000
vn 0.000000 -1.000000 0.000000
vn 0.000000 -1.000000 0.000000
vn 1.000000 0.000000 0.000000
vn 1.000000 0.000000 0.000000
vn 1.000000 0.000000 0.000000
vn 1.000000 0.000000 0.000000
vn -1.000000 0.000000 0.000000
vn -1.000000 0.000000 0.000000
vn -1.000000 0.000000 0.000000
vn -1.000000 0.000000 0.000000
s off
g Bag Buckle
usemtl initialShadingGroup
f 19/33/45 20/34/46 22/36/47 21/35/48
f 21/35/49 22/36/50 24/38/51 23/37/52
f 23/37/53 24/38/54 18/40/55 17/39/56
f 18/32/57 24/41/58 22/42/59 20/34/60
f 23/43/61 17/31/62 19/33/63 21/44/64
