# This file uses centimeters as units for non-parametric coordinates.

mtllib Hoodie.mtl
g default
v -2.695696 -2.867362 -0.905069
v -2.695696 -2.867362 2.553524
v -2.695696 2.867362 -0.905069
v -2.695696 2.867362 2.553524
v 2.695696 2.867362 -0.905069
v 2.695696 2.867362 2.553524
v 2.695696 -2.867362 -0.905069
v 2.695696 -2.867362 2.553524
v -0.898565 -2.867362 2.553524
v -0.898565 -2.867362 -0.905069
v -0.898565 2.867362 -0.905069
v -0.898565 2.867362 2.553524
v 0.898566 -2.867362 2.553524
v 0.898566 -2.867362 -0.905069
v 0.898566 2.867362 -0.905069
v 0.898566 2.867362 2.553524
v 0.898566 2.867362 2.820291
v 0.898566 -2.867362 2.820291
v 2.695696 -2.867362 2.820291
v 2.695696 2.867362 2.820291
v -0.898565 -2.867362 2.820291
v -2.695696 -2.867362 2.820291
v -0.898565 2.867362 2.820291
v -2.695696 2.867362 2.820291
vt 0.375000 0.000000
vt 0.625000 0.000000
vt 0.375000 0.250000
vt 0.625000 0.250000
vt 0.375000 0.500000
vt 0.625000 0.500000
vt 0.375000 0.750000
vt 0.625000 0.750000
vt 0.375000 1.000000
vt 0.625000 1.000000
vt 0.875000 0.000000
vt 0.875000 0.250000
vt 0.125000 0.000000
vt 0.125000 0.250000
vt 0.625000 0.875000
vt 0.750000 0.000000
vt 0.250000 0.000000
vt 0.375000 0.875000
vt 0.250000 0.250000
vt 0.375000 0.375000
vt 0.625000 0.375000
vt 0.750000 0.250000
vt 0.625000 0.916667
vt 0.708333 0.000000
vt 0.291667 0.000000
vt 0.375000 0.916667
vt 0.291667 0.250000
vt 0.375000 0.333333
vt 0.625000 0.333333
vt 0.708333 0.250000
vt 0.625000 0.833333
vt 0.791667 0.000000
vt 0.208333 0.000000
vt 0.375000 0.833333
vt 0.208333 0.250000
vt 0.375000 0.416667
vt 0.625000 0.416667
vt 0.791667 0.250000
vt 0.791667 0.250000
vt 0.791667 0.000000
vt 0.875000 0.000000
vt 0.875000 0.250000
vt 0.625000 0.000000
vt 0.708333 0.000000
vt 0.708333 0.250000
vt 0.625000 0.250000
vt 0.125000 0.083333
vt 0.375000 0.666667
vt 0.208333 0.083333
vt 0.291667 0.083333
vt 0.375000 0.083333
vt 0.625000 0.083333
vt 0.625000 0.083333
vt 0.708333 0.083333
vt 0.708333 0.083333
vt 0.791667 0.083333
vt 0.791667 0.083333
vt 0.875000 0.083333
vt 0.625000 0.666667
vt 0.875000 0.083333
vt 0.125000 0.166667
vt 0.375000 0.583333
vt 0.208333 0.166667
vt 0.291667 0.166667
vt 0.375000 0.166667
vt 0.625000 0.166667
vt 0.625000 0.166667
vt 0.708333 0.166667
vt 0.708333 0.166667
vt 0.791667 0.166667
vt 0.791667 0.166667
vt 0.875000 0.166667
vt 0.625000 0.583333
vt 0.875000 0.166667
vt 0.125000 0.125000
vt 0.375000 0.625000
vt 0.208333 0.125000
vt 0.291667 0.125000
vt 0.375000 0.125000
vt 0.625000 0.125000
vt 0.625000 0.125000
vt 0.708333 0.125000
vt 0.708333 0.125000
vt 0.791667 0.125000
vt 0.791667 0.125000
vt 0.875000 0.125000
vt 0.625000 0.625000
vt 0.875000 0.125000
vn -1.000000 0.000000 0.000000
vn -1.000000 0.000000 0.000000
vn -1.000000 0.000000 0.000000
vn -1.000000 0.000000 0.000000
vn 0.000000 1.000000 0.000000
vn 0.000000 1.000000 0.000000
vn 0.000000 1.000000 0.000000
vn 0.000000 1.000000 0.000000
vn 1.000000 0.000000 0.000000
vn 1.000000 0.000000 0.000000
vn 1.000000 0.000000 0.000000
vn 1.000000 0.000000 0.000000
vn -0.000000 -1.000000 0.000000
vn -0.000000 -1.000000 0.000000
vn -0.000000 -1.000000 0.000000
vn -0.000000 -1.000000 0.000000
vn 0.000000 0.000000 1.000000
vn 0.000000 0.000000 1.000000
vn 0.000000 0.000000 1.000000
vn 0.000000 0.000000 1.000000
vn 0.000000 0.000000 -1.000000
vn 0.000000 0.000000 -1.000000
vn 0.000000 0.000000 -1.000000
vn 0.000000 0.000000 -1.000000
vn 0.000000 -1.000000 0.000000
vn 0.000000 -1.000000 0.000000
vn 0.000000 -1.000000 0.000000
vn 0.000000 -1.000000 0.000000
vn 0.000000 0.000000 -1.000000
vn 0.000000 0.000000 -1.000000
vn 0.000000 0.000000 -1.000000
vn 0.000000 0.000000 -1.000000
vn 0.000000 1.000000 0.000000
vn 0.000000 1.000000 0.000000
vn 0.000000 1.000000 0.000000
vn 0.000000 1.000000 0.000000
vn 0.000000 0.000000 1.000000
vn 0.000000 0.000000 1.000000
vn 0.000000 0.000000 1.000000
vn 0.000000 0.000000 1.000000
vn 0.000000 0.000000 1.000000
vn 0.000000 0.000000 1.000000
vn 0.000000 0.000000 1.000000
vn 0.000000 0.000000 1.000000
vn -1.000000 0.000000 0.000000
vn -1.000000 0.000000 0.000000
vn -1.000000 0.000000 0.000000
vn -1.000000 0.000000 0.000000
vn -0.000000 -1.000000 0.000000
vn -0.000000 -1.000000 0.000000
vn 1.000000 0.000000 0.000000
vn 1.000000 0.000000 0.000000
vn 0.000000 1.000000 0.000000
vn 0.000000 1.000000 0.000000
vn 0.000000 -1.000000 0.000000
vn 0.000000 -1.000000 0.000000
vn 1.000000 0.000000 0.000000
vn 1.000000 0.000000 0.000000
vn 1.000000 0.000000 0.000000
vn 1.000000 0.000000 0.000000
vn 0.000000 1.000000 0.000000
vn 0.000000 1.000000 0.000000
vn -1.000000 0.000000 0.000000
vn -1.000000 0.000000 0.000000
s 1
g Hoodie
usemtl initialShadingGroup
f 1/1/1 2/2/2 4/4/3 3/3/4
s 2
f 15/36/5 16/37/6 6/6/7 5/5/8
s 3
f 5/5/9 6/6/10 8/8/11 7/7/12
s 4
f 7/7/13 8/8/14 13/31/15 14/34/16
s off
f 17/39/17 18/40/18 19/41/19 20/42/20
s 5
f 7/13/21 14/33/22 15/35/23 5/14/24
s 4
f 10/26/25 9/23/26 2/10/27 1/9/28
s 5
f 11/27/29 10/25/30 1/1/31 3/3/32
s 2
f 3/3/33 4/4/34 12/29/35 11/28/36
s off
f 22/43/37 21/44/38 23/45/39 24/46/40
s 4
f 14/34/16 13/31/15 9/23/26 10/26/25
s 5
f 15/35/23 14/33/22 10/25/30 11/27/29
s 2
f 11/28/36 12/29/35 16/37/6 15/36/5
s off
f 12/30/41 9/24/42 13/32/43 16/38/44
f 16/38/45 13/32/46 18/40/47 17/39/48
s 4
f 13/32/15 8/11/14 19/41/49 18/40/50
s 3
f 8/11/11 6/12/10 20/42/51 19/41/52
s 2
f 6/12/7 16/38/6 17/39/53 20/42/54
s 4
f 2/2/27 9/24/26 21/44/55 22/43/56
s off
f 9/24/57 12/30/58 23/45/59 21/44/60
s 2
f 12/30/35 4/4/34 24/46/61 23/45/62
s 1
f 4/4/3 2/2/2 22/43/63 24/46/64
g default
v -2.128168 -0.143900 0.270542
v 2.128168 -0.143900 0.270542
v -2.128168 1.520427 -0.186541
v 2.128168 1.520427 -0.186541
v -2.128168 0.797103 -2.820289
v 2.128168 0.797103 -2.820289
v -2.128168 -0.867224 -2.363206
v 2.128168 -0.867224 -2.363206
v -1.656466 1.235682 -0.395244
v 1.656466 1.235682 -0.395244
v 1.656466 0.661960 -2.484266
v -1.656466 0.661960 -2.484266
vt 0.375000 0.000000
vt 0.625000 0.000000
vt 0.375000 0.250000
vt 0.625000 0.250000
vt 0.375000 0.500000
vt 0.625000 0.500000
vt 0.375000 0.750000
vt 0.625000 0.750000
vt 0.375000 1.000000
vt 0.625000 1.000000
vt 0.875000 0.000000
vt 0.875000 0.250000
vt 0.125000 0.000000
vt 0.125000 0.250000
vt 0.375000 0.250000
vt 0.625000 0.250000
vt 0.625000 0.500000
vt 0.375000 0.500000
vn 0.000000 0.264829 0.964295
vn 0.000000 0.264829 0.964295
vn 0.000000 0.264829 0.964295
vn 0.000000 0.264829 0.964295
vn 0.000000 0.964295 -0.264831
vn 0.000000 0.964295 -0.264831
vn 0.000000 0.964295 -0.264831
vn 0.000000 0.964295 -0.264831
vn 0.000000 -0.264829 -0.964295
vn 0.000000 -0.264829 -0.964295
vn 0.000000 -0.264829 -0.964295
vn 0.000000 -0.264829 -0.964295
vn 0.000000 -0.964295 0.264831
vn 0.000000 -0.964295 0.264831
vn 0.000000 -0.964295 0.264831
vn 0.000000 -0.964295 0.264831
vn 1.000000 -0.000000 0.000000
vn 1.000000 -0.000000 0.000000
vn 1.000000 -0.000000 0.000000
vn 1.000000 -0.000000 0.000000
vn -1.000000 0.000000 0.000000
vn -1.000000 0.000000 0.000000
vn -1.000000 0.000000 0.000000
vn -1.000000 0.000000 0.000000
vn 0.000000 0.591162 -0.806553
vn 0.000000 0.591162 -0.806553
vn 0.000000 0.591162 -0.806553
vn 0.000000 0.591162 -0.806553
vn -0.421590 0.874410 -0.240145
vn -0.421590 0.874410 -0.240145
vn -0.421590 0.874410 -0.240145
vn -0.421590 0.874410 -0.240145
vn 0.000000 0.927776 0.373137
vn 0.000000 0.927776 0.373137
vn 0.000000 0.927776 0.373137
vn 0.000000 0.927776 0.373137
vn 0.421590 0.874410 -0.240145
vn 0.421590 0.874410 -0.240145
vn 0.421590 0.874410 -0.240145
vn 0.421590 0.874410 -0.240145
s off
g Hoodie Hood
usemtl initialShadingGroup
f 25/89/65 26/90/66 28/92/67 27/91/68
f 33/103/69 34/104/70 35/105/71 36/106/72
f 29/93/73 30/94/74 32/96/75 31/95/76
f 31/95/77 32/96/78 26/98/79 25/97/80
f 26/90/81 32/99/82 30/100/83 28/92/84
f 31/101/85 25/89/86 27/91/87 29/102/88
f 27/91/89 28/92/90 34/104/91 33/103/92
f 28/92/93 30/94/94 35/105/95 34/104/96
f 30/94/97 29/93/98 36/106/99 35/105/100
f 29/93/101 27/91/102 33/103/103 36/106/104
