# This file uses centimeters as units for non-parametric coordinates.

mtllib Jacket.mtl
g default
v -2.695696 -2.867363 -1.862680
v -2.695696 -2.867363 1.595914
v -2.695696 2.867362 -1.862680
v -2.695696 2.867362 1.595914
v 2.695696 2.867362 -1.862680
v 2.695696 2.867362 1.595914
v 2.695696 -2.867363 -1.862680
v 2.695696 -2.867363 1.595914
v -0.898565 -2.867362 1.595914
v -0.898565 -2.867362 -1.862680
v -0.898565 2.867362 -1.862680
v -0.898565 2.867362 1.595914
v 0.898566 -2.867362 1.595914
v 0.898566 -2.867362 -1.862680
v 0.898566 2.867362 -1.862680
v 0.898566 2.867362 1.595914
v 0.898566 2.867362 1.862680
v 0.898566 -2.867362 1.862680
v 2.695696 -2.867363 1.862680
v 2.695696 2.867362 1.862680
v -0.898565 -2.867362 1.862680
v -2.695696 -2.867363 1.862680
v -0.898565 2.867362 1.862680
v -2.695696 2.867362 1.862680
vt 0.375000 0.000000
vt 0.625000 0.000000
vt 0.375000 0.250000
vt 0.625000 0.250000
vt 0.375000 0.500000
vt 0.625000 0.500000
vt 0.375000 0.750000
vt 0.625000 0.750000
vt 0.375000 1.000000
vt 0.625000 1.000000
vt 0.875000 0.000000
vt 0.875000 0.250000
vt 0.125000 0.000000
vt 0.125000 0.250000
vt 0.625000 0.875000
vt 0.750000 0.000000
vt 0.250000 0.000000
vt 0.375000 0.875000
vt 0.250000 0.250000
vt 0.375000 0.375000
vt 0.625000 0.375000
vt 0.750000 0.250000
vt 0.625000 0.916667
vt 0.708333 0.000000
vt 0.291667 0.000000
vt 0.375000 0.916667
vt 0.291667 0.250000
vt 0.375000 0.333333
vt 0.625000 0.333333
vt 0.708333 0.250000
vt 0.625000 0.833333
vt 0.791667 0.000000
vt 0.208333 0.000000
vt 0.375000 0.833333
vt 0.208333 0.250000
vt 0.375000 0.416667
vt 0.625000 0.416667
vt 0.791667 0.250000
vt 0.791667 0.250000
vt 0.791667 0.000000
vt 0.875000 0.000000
vt 0.875000 0.250000
vt 0.625000 0.000000
vt 0.708333 0.000000
vt 0.708333 0.250000
vt 0.625000 0.250000
vn -1.000000 0.000000 0.000000
vn -1.000000 0.000000 0.000000
vn -1.000000 0.000000 0.000000
vn -1.000000 0.000000 0.000000
vn 0.000000 1.000000 0.000000
vn 0.000000 1.000000 0.000000
vn 0.000000 1.000000 0.000000
vn 0.000000 1.000000 0.000000
vn 1.000000 0.000000 0.000000
vn 1.000000 0.000000 0.000000
vn 1.000000 0.000000 0.000000
vn 1.000000 0.000000 0.000000
vn -0.000000 -1.000000 0.000000
vn -0.000000 -1.000000 0.000000
vn -0.000000 -1.000000 0.000000
vn -0.000000 -1.000000 0.000000
vn 0.000000 0.000000 1.000000
vn 0.000000 0.000000 1.000000
vn 0.000000 0.000000 1.000000
vn 0.000000 0.000000 1.000000
vn 0.000000 0.000000 -1.000000
vn 0.000000 0.000000 -1.000000
vn 0.000000 0.000000 -1.000000
vn 0.000000 0.000000 -1.000000
vn 0.000000 -1.000000 0.000000
vn 0.000000 -1.000000 0.000000
vn 0.000000 -1.000000 0.000000
vn 0.000000 -1.000000 0.000000
vn 0.000000 0.000000 -1.000000
vn 0.000000 0.000000 -1.000000
vn 0.000000 0.000000 -1.000000
vn 0.000000 0.000000 -1.000000
vn 0.000000 1.000000 0.000000
vn 0.000000 1.000000 0.000000
vn 0.000000 1.000000 0.000000
vn 0.000000 1.000000 0.000000
vn 0.000000 0.000000 1.000000
vn 0.000000 0.000000 1.000000
vn 0.000000 0.000000 1.000000
vn 0.000000 0.000000 1.000000
vn 0.000000 0.000000 1.000000
vn 0.000000 0.000000 1.000000
vn 0.000000 0.000000 1.000000
vn 0.000000 0.000000 1.000000
vn -1.000000 0.000000 0.000000
vn -1.000000 0.000000 0.000000
vn -1.000000 0.000000 0.000000
vn -1.000000 0.000000 0.000000
vn -0.000000 -1.000000 0.000000
vn -0.000000 -1.000000 0.000000
vn 1.000000 0.000000 0.000000
vn 1.000000 0.000000 0.000000
vn 0.000000 1.000000 0.000000
vn 0.000000 1.000000 0.000000
vn 0.000000 -1.000000 0.000000
vn 0.000000 -1.000000 0.000000
vn 1.000000 0.000000 0.000000
vn 1.000000 0.000000 0.000000
vn 1.000000 0.000000 0.000000
vn 1.000000 0.000000 0.000000
vn 0.000000 1.000000 0.000000
vn 0.000000 1.000000 0.000000
vn -1.000000 0.000000 0.000000
vn -1.000000 0.000000 0.000000
s 1
g Jacket
usemtl initialShadingGroup
f 1/1/1 2/2/2 4/4/3 3/3/4
s 2
f 15/36/5 16/37/6 6/6/7 5/5/8
s 3
f 5/5/9 6/6/10 8/8/11 7/7/12
s 4
f 7/7/13 8/8/14 13/31/15 14/34/16
s off
f 17/39/17 18/40/18 19/41/19 20/42/20
s 5
f 7/13/21 14/33/22 15/35/23 5/14/24
s 4
f 10/26/25 9/23/26 2/10/27 1/9/28
s 5
f 11/27/29 10/25/30 1/1/31 3/3/32
s 2
f 3/3/33 4/4/34 12/29/35 11/28/36
s off
f 22/43/37 21/44/38 23/45/39 24/46/40
s 4
f 14/34/16 13/31/15 9/23/26 10/26/25
s 5
f 15/35/23 14/33/22 10/25/30 11/27/29
s 2
f 11/28/36 12/29/35 16/37/6 15/36/5
s off
f 12/30/41 9/24/42 13/32/43 16/38/44
f 16/38/45 13/32/46 18/40/47 17/39/48
s 4
f 13/32/15 8/11/14 19/41/49 18/40/50
s 3
f 8/11/11 6/12/10 20/42/51 19/41/52
s 2
f 6/12/7 16/38/6 17/39/53 20/42/54
s 4
f 2/2/27 9/24/26 21/44/55 22/43/56
s off
f 9/24/57 12/30/58 23/45/59 21/44/60
s 2
f 12/30/35 4/4/34 24/46/61 23/45/62
s 1
f 4/4/3 2/2/2 22/43/63 24/46/64
